<svg xmlns="http://www.w3.org/2000/svg" viewBox="0 0 512.18 512.18"><path d="M511.825 170.191c-.14-1.786-.298-3.155-.44-4.095C504.22 84.955 444.691 20.73 367.434 20.73c-44.758 0-85.66 21.18-112.442 55.516C228.835 41.679 189.491 20.73 144.97 20.73 67.976 20.73 8.584 84.52.937 166.557c-.147.956-.295 2.12-.43 3.489C-.8 183.3.287 200.862 5.338 222.26c10.732 45.463 35.828 86.871 71.224 118.958l164.828 144.92c8.028 7.059 20.042 7.085 28.101.062l166.037-144.683c39.134-40.728 62.393-77.366 71.616-119.584 4.627-21.202 5.704-38.649 4.681-51.742zm-46.365 42.642c-7.254 33.204-26.552 63.603-59.352 97.843L255.545 441.771l-150.569-132.38c-28.881-26.184-49.406-60.051-58.113-96.933-3.953-16.747-4.747-29.585-3.895-38.225.075-.764.393-3.072.393-3.072C48.849 109.384 91.478 63.397 144.97 63.397c39.823 0 73.704 24.287 90.17 63.294 7.338 17.382 31.97 17.382 39.308 0 16.136-38.225 52.419-63.294 92.986-63.294 53.494 0 96.121 45.99 101.609 107.786.147 1.242.187 1.586.245 2.333.705 9.025-.114 22.295-3.828 39.317z"/></svg>