<svg xmlns="http://www.w3.org/2000/svg" viewBox="0 0 504.4 504.4"><path d="M377.6.2H126.4C56.8.2 0 57 0 126.6v251.6c0 69.2 56.8 126 126.4 126H378c69.6 0 126.4-56.8 126.4-126.4V126.6C504 57 447.2.2 377.6.2zM99.6 305c0 .8-.8 1.2-1.2 1.2-.8 0-1.2-.4-1.2-1.2l-2.4-18.4 2.4-18.8c0-.8.8-1.2 1.2-1.2.8 0 1.2.4 1.2 1.2l2.8 18.8-2.8 18.4zm11.6 11.2c0 .8-.8 1.2-1.2 1.2-.8 0-1.2-.4-1.2-1.2l-3.2-29.6 3.2-30.4c0-.8.8-1.2 1.2-1.2.8 0 1.2.4 1.2 1.2l3.6 30.4-3.6 29.6zm12.8 5.2c0 .8-.8 1.6-1.6 1.6s-1.6-.8-1.6-1.6l-2.8-34.8 2.8-36c0-.8.8-1.6 1.6-1.6s1.6.8 1.6 1.6l3.2 36-3.2 34.8zm12.8 1.2c0 1.2-.8 2-2 2s-1.6-.8-2-2L130 287l2.8-36.8c0-1.2.8-2 2-2s1.6.8 2 2L140 287l-3.2 35.6zm12.8.4c0 1.2-.8 2.4-2 2.4s-2-.8-2-2.4l-2.8-36 2.8-34.4c0-1.2.8-2.4 2-2.4s2 .8 2 2.4l2.8 34.4-2.8 36zm14.4 0c0 1.6-2 2.4-3.2 2.4-1.2 0-2.8-1.2-2.8-2.4l-2.8-36 2.4-56c0-1.6 1.2-2.4 2.4-2.4s2.4 1.2 2.4 2.4l3.6 56-2 36zm12-.4c0 1.6-1.6 2.8-2.8 2.8-1.6 0-2.8-1.2-2.8-2.8l-2.4-36 2.4-68.8c0-1.6 1.2-2.8 2.8-2.8 1.6 0 2.4 1.2 2.8 2.8l2.8 68.8-2.8 36zm12-.4c0 1.6-1.2 3.2-2.8 3.2-1.6 0-2.8-1.2-2.8-3.2l-2-35.6 2-74.4c0-1.6 1.2-3.2 2.8-3.2 1.6 0 2.8 1.2 2.8 3.2l2 74.4-2 35.6zm13.6 0c0 2-1.6 3.2-3.2 3.2s-3.2-1.6-3.2-3.2l-2-35.2 2-76.8c0-2 1.6-3.2 3.2-3.2s3.2 1.6 3.2 3.2l2.4 76.4-2.4 35.6zm13.6-.4c0 2-1.6 3.6-3.6 3.6s-3.2-1.6-3.6-3.6l-2-34.8 2-75.2c0-2 1.6-3.6 3.6-3.6s3.6 1.6 3.6 3.6l2 74.8-2 35.2zm12.8-.4c0 2-1.6 4-3.6 4s-3.6-1.6-3.6-4l-1.6-34.8 1.6-72c0-2.4 1.6-4 3.6-4s3.6 1.6 3.6 4l1.6 72-1.6 34.8zm16 0c0 2.4-2.8 4.4-4.8 4.4s-4.4-2-4.4-4.4l-1.6-34.4 1.2-86c0-2.4 1.6-4.4 4-4.4 2 0 4 2 4 4.4l2.8 86-1.2 34.4zm12-.8c0 2.4-2.4 4.4-4.4 4.4-2.4 0-4.4-2-4.4-4.4l-1.6-34 1.6-93.6c0-2.4 2-4.4 4.4-4.4 2.4 0 4.4 2 4.4 4.4l2 93.6-2 34zm114.4 4.8H263.6c-2.4-.4-3.6-2.4-3.6-4.8v-132c0-2.4.4-3.6 3.2-4.8 7.6-3.2 16-4.8 24.4-4.8 35.6 0 64.8 29.2 68 66.8 4.4-2 9.6-3.2 14.8-3.2 21.2 0 38.8 18.8 38.8 41.6s-17.2 41.2-38.8 41.2z"/></svg>